<svg width="137" height="137" viewBox="0 0 137 137" fill="none" xmlns="http://www.w3.org/2000/svg">
<path d="M68.5 2L77.3737 12.4739L89.0496 5.25474L94.2524 17.9581L107.588 14.7004L108.61 28.3897L122.3 29.4123L119.042 42.7476L131.745 47.9504L124.526 59.6263L135 68.5L124.526 77.3737L131.745 89.0496L119.042 94.2524L122.3 107.588L108.61 108.61L107.588 122.3L94.2524 119.042L89.0496 131.745L77.3737 124.526L68.5 135L59.6263 124.526L47.9504 131.745L42.7476 119.042L29.4123 122.3L28.3897 108.61L14.7004 107.588L17.9581 94.2524L5.25474 89.0496L12.4739 77.3737L2 68.5L12.4739 59.6263L5.25474 47.9504L17.9581 42.7476L14.7004 29.4123L28.3897 28.3897L29.4123 14.7004L42.7476 17.9581L47.9504 5.25474L59.6263 12.4739L68.5 2Z" stroke="black" stroke-width="1.5"/>
</svg>
