<svg width="128" height="129" viewBox="0 0 128 129" fill="none" xmlns="http://www.w3.org/2000/svg">
<g filter="url(#filter0_d_304_91)">
<path d="M79.897 12.3103C81.1816 11.368 82.9986 12.2326 83.0775 13.8238L84.6597 45.7124C84.6898 46.3202 84.9951 46.8813 85.489 47.2367L111.405 65.8852C112.698 66.8158 112.437 68.811 110.948 69.3778L81.109 80.7366C80.5403 80.9531 80.1011 81.4167 79.9156 81.9964L70.1882 112.406C69.7028 113.924 67.7247 114.292 66.7255 113.051L46.7019 88.1828C46.3202 87.7088 45.7435 87.4343 45.135 87.4371L13.2075 87.5829C11.6144 87.5902 10.6526 85.8227 11.5241 84.489L28.9877 57.7607C29.3206 57.2512 29.4034 56.6179 29.2127 56.04L19.2079 25.7202C18.7087 24.2073 20.0925 22.7465 21.6302 23.1631L52.4469 31.5125C53.0343 31.6717 53.6622 31.5547 54.1529 31.1948L79.897 12.3103Z" fill="url(#paint0_linear_304_91)"/>
<path d="M86.6572 45.6133L85.0751 13.7247C84.9172 10.5423 81.2833 8.81305 78.7141 10.6977L52.9699 29.5821L22.1532 21.2327C19.0778 20.3995 16.3102 23.3211 17.3086 26.3469L27.3134 56.6667L9.84976 83.3951C8.10693 86.0625 10.0304 89.5975 13.2166 89.5829L45.1441 89.4371L65.1677 114.306C67.166 116.787 71.1224 116.05 72.0931 113.016L81.8206 82.6057L111.66 71.2469C114.637 70.1133 115.159 66.1229 112.573 64.2618L86.6572 45.6133Z" stroke="white" stroke-width="4" stroke-linejoin="round"/>
</g>
<defs>
<filter id="filter0_d_304_91" x="0.188232" y="0.914062" width="127.049" height="127.885" filterUnits="userSpaceOnUse" color-interpolation-filters="sRGB">
<feFlood flood-opacity="0" result="BackgroundImageFix"/>
<feColorMatrix in="SourceAlpha" type="matrix" values="0 0 0 0 0 0 0 0 0 0 0 0 0 0 0 0 0 0 127 0" result="hardAlpha"/>
<feOffset dx="2" dy="2"/>
<feGaussianBlur stdDeviation="4.5"/>
<feComposite in2="hardAlpha" operator="out"/>
<feColorMatrix type="matrix" values="0 0 0 0 0 0 0 0 0 0 0 0 0 0 0 0 0 0 0.15 0"/>
<feBlend mode="normal" in2="BackgroundImageFix" result="effect1_dropShadow_304_91"/>
<feBlend mode="normal" in="SourceGraphic" in2="effect1_dropShadow_304_91" result="shape"/>
</filter>
<linearGradient id="paint0_linear_304_91" x1="44" y1="5.5" x2="34.6687" y2="111.45" gradientUnits="userSpaceOnUse">
<stop stop-color="#358537"/>
<stop offset="1" stop-color="#4DAF2A"/>
</linearGradient>
</defs>
</svg>
