<svg width="78" height="162" viewBox="0 0 78 162" fill="none" xmlns="http://www.w3.org/2000/svg">
<path d="M34.52 50.4922H39.3096V118.501H34.52V84.4966V50.4922Z" fill="#8EC41D"/>
<path d="M34.52 50.4922H39.3096V118.501H34.52V84.4966V50.4922Z" fill="url(#paint0_linear_304_96)"/>
<path fill-rule="evenodd" clip-rule="evenodd" d="M56.1396 93.1836L73.7839 85.0271C61.3314 80.8023 55.8496 83.3363 51.301 85.439C47.2844 87.2958 42.4567 90.3451 37.8957 101.617L56.1396 93.1836ZM56.139 93.1858L73.7833 85.0292C68.9341 97.2522 63.4524 99.7862 58.9038 101.889C54.8872 103.746 49.4367 105.448 37.8951 101.619L56.139 93.1858Z" fill="#8EC41D"/>
<path fill-rule="evenodd" clip-rule="evenodd" d="M56.1396 93.1836L73.7839 85.0271C61.3314 80.8023 55.8496 83.3363 51.301 85.439C47.2844 87.2958 42.4567 90.3451 37.8957 101.617L56.1396 93.1836ZM56.139 93.1858L73.7833 85.0292C68.9341 97.2522 63.4524 99.7862 58.9038 101.889C54.8872 103.746 49.4367 105.448 37.8951 101.619L56.139 93.1858Z" fill="url(#paint1_linear_304_96)"/>
<path fill-rule="evenodd" clip-rule="evenodd" d="M21.1945 83.9293L4.94785 73.2569C17.861 70.9578 22.9085 74.2734 27.0967 77.0247C30.7952 79.4542 35.122 83.1795 37.9931 94.9643L21.1945 83.9293ZM21.195 83.9303L4.94843 73.258C7.96644 86.0222 13.0139 89.3379 17.2022 92.0892C20.9006 94.5187 26.0379 97.0103 37.9937 94.9653L21.195 83.9303Z" fill="#8EC41D"/>
<path fill-rule="evenodd" clip-rule="evenodd" d="M21.1945 83.9293L4.94785 73.2569C17.861 70.9578 22.9085 74.2734 27.0967 77.0247C30.7952 79.4542 35.122 83.1795 37.9931 94.9643L21.1945 83.9293ZM21.195 83.9303L4.94843 73.258C7.96644 86.0222 13.0139 89.3379 17.2022 92.0892C20.9006 94.5187 26.0379 97.0103 37.9937 94.9653L21.195 83.9303Z" fill="url(#paint2_linear_304_96)"/>
<ellipse cx="36.9151" cy="123.758" rx="23.3841" ry="13.5527" fill="#60372B"/>
<path fill-rule="evenodd" clip-rule="evenodd" d="M36.8261 0.000576911L36.8911 19.4389L36.9568 39.1221C36.9567 39.1222 36.9567 39.1222 36.9567 39.1223L36.891 19.4383L36.8261 0C24.1868 9.57273 24.207 15.6118 24.2237 20.6229C24.224 20.7096 24.2247 20.7967 24.2259 20.8844C24.0702 20.8208 23.9156 20.7596 23.7621 20.7005C19.0864 18.898 13.4515 16.7258 0.00117514 25.1209L0.000915527 25.1208C4.18323 39.8349 9.57561 42.3749 14.1492 44.1542C13.9423 44.358 13.7397 44.5607 13.5395 44.761C10.4116 47.8911 7.14357 52.6294 9.10245 67.1268C23.6011 69.076 28.3373 65.8048 31.4652 62.6748C33.5073 60.6313 35.7909 58.3461 36.9324 53.7691C37.8496 57.7694 39.6005 59.9598 41.3096 61.6701C44.8518 65.2147 49.1207 69.4864 64.8203 67.2708L51.0799 53.5212L37.1023 39.5343L37.1021 39.533L51.0815 53.5217L64.8219 67.2713C66.9654 52.1552 63.0867 47.6339 59.6335 44.1547C64.2074 42.3754 69.6003 39.8363 73.783 25.1208L73.7836 25.1206C60.3333 16.7255 54.6984 18.8977 50.0227 20.7001C49.8711 20.7586 49.7185 20.8189 49.5649 20.8816C49.566 20.7665 49.5663 20.6523 49.5659 20.5388C49.5492 15.5278 49.529 9.48869 36.8261 0.000576911Z" fill="url(#paint3_radial_304_96)"/>
<path fill-rule="evenodd" clip-rule="evenodd" d="M11.4187 115.124C10.2782 115.124 9.41737 116.159 9.62524 117.281L11.4885 127.333C11.6488 128.197 12.4028 128.824 13.282 128.824H14.7612C15.5333 132.325 16.1573 136.306 16.7779 140.266L16.7779 140.266C18.4938 151.214 20.1839 161.997 24.9064 161.997C27.7622 161.997 29.2779 161.971 30.4768 161.95H30.4769C32.2104 161.919 33.2815 161.901 36.7833 161.991V161.997L36.914 161.994L37.0447 161.997V161.991C40.5465 161.901 41.6176 161.919 43.3511 161.95H43.3511H43.3512C44.5501 161.971 46.0658 161.997 48.9216 161.997C53.6441 161.997 55.3343 151.214 57.0501 140.266C57.6707 136.306 58.2947 132.325 59.0668 128.824H60.6205C61.5046 128.824 62.2615 128.19 62.4163 127.32L64.2051 117.268C64.404 116.15 63.5445 115.124 62.4093 115.124H11.4187Z" fill="#A44F34"/>
<path fill-rule="evenodd" clip-rule="evenodd" d="M11.4187 115.124C10.2782 115.124 9.41737 116.159 9.62524 117.281L11.4885 127.333C11.6488 128.197 12.4028 128.824 13.282 128.824H14.7612C15.5333 132.325 16.1573 136.306 16.7779 140.266L16.7779 140.266C18.4938 151.214 20.1839 161.997 24.9064 161.997C27.7622 161.997 29.2779 161.971 30.4768 161.95H30.4769C32.2104 161.919 33.2815 161.901 36.7833 161.991V161.997L36.914 161.994L37.0447 161.997V161.991C40.5465 161.901 41.6176 161.919 43.3511 161.95H43.3511H43.3512C44.5501 161.971 46.0658 161.997 48.9216 161.997C53.6441 161.997 55.3343 151.214 57.0501 140.266C57.6707 136.306 58.2947 132.325 59.0668 128.824H60.6205C61.5046 128.824 62.2615 128.19 62.4163 127.32L64.2051 117.268C64.404 116.15 63.5445 115.124 62.4093 115.124H11.4187Z" fill="url(#paint4_radial_304_96)"/>
<path d="M46.7692 36.2883C46.7692 41.7432 42.3471 44.1213 36.8922 44.1213C31.4373 44.1213 27.0152 41.7432 27.0152 36.2883C27.0152 30.8334 31.4373 28.8364 36.8922 28.8364C42.3471 28.8364 46.7692 30.8334 46.7692 36.2883Z" fill="#F5D3AD"/>
<path d="M42.1941 36.3747C42.1941 39.3148 39.8107 40.5965 36.8707 40.5965C33.9307 40.5965 31.5473 39.3148 31.5473 36.3747C31.5473 33.4347 33.9307 32.3584 36.8707 32.3584C39.8107 32.3584 42.1941 33.4347 42.1941 36.3747Z" fill="#3A1408"/>
<defs>
<linearGradient id="paint0_linear_304_96" x1="36.9148" y1="50.4922" x2="36.9148" y2="118.501" gradientUnits="userSpaceOnUse">
<stop stop-color="#529E16"/>
<stop offset="0.578125" stop-color="#89BB20" stop-opacity="0"/>
</linearGradient>
<linearGradient id="paint1_linear_304_96" x1="52.0374" y1="85.0986" x2="59.6415" y2="101.548" gradientUnits="userSpaceOnUse">
<stop stop-color="#C6D522"/>
<stop offset="0.578125" stop-color="#89BB20" stop-opacity="0"/>
</linearGradient>
<linearGradient id="paint2_linear_304_96" x1="26.4185" y1="76.5792" x2="16.5231" y2="91.6431" gradientUnits="userSpaceOnUse">
<stop stop-color="#C6D522"/>
<stop offset="0.578125" stop-color="#89BB20" stop-opacity="0"/>
</linearGradient>
<radialGradient id="paint3_radial_304_96" cx="0" cy="0" r="1" gradientUnits="userSpaceOnUse" gradientTransform="translate(36.8923 33.9403) rotate(90) scale(33.9403 36.8913)">
<stop stop-color="#EF6E25"/>
<stop offset="0.838542" stop-color="#FFD860"/>
</radialGradient>
<radialGradient id="paint4_radial_304_96" cx="0" cy="0" r="1" gradientUnits="userSpaceOnUse" gradientTransform="translate(48.7033 110.002) rotate(109.002) scale(36.2077 42.2068)">
<stop stop-color="#69351E"/>
<stop offset="1" stop-color="#691E1E" stop-opacity="0"/>
</radialGradient>
</defs>
</svg>
